<?xml version="1.0" encoding="utf-8"?>

<svg version="1.1" xmlns="http://www.w3.org/2000/svg" xmlns:xlink="http://www.w3.org/1999/xlink" x="0px" y="0px"
	viewBox="0 0 226 100" style="enable-background:new 0 0 226 100;" xml:space="preserve">
	<style type="text/css">
		.st0 {
			fill: #FFFFFF;
		}

		.st1 {
			fill: #215B9B;
		}
	</style>
	<g id="Слой_4">
		<circle class="st0" cx="47.5" cy="48.5" r="31.5" />
		<path class="st1" d="M52,69.2L52,69.2c-3.6,2.1-8.2,0.8-10.2-2.7L28.3,43.1c-2.1-3.6-0.8-8.2,2.7-10.2l0,0
		c3.6-2.1,8.2-0.8,10.2,2.7L54.7,59C56.8,62.5,55.6,67.1,52,69.2z" />
		<path class="st1" d="M61.9,51.2L61.9,51.2c-3.5,2-8.1,0.9-10.2-2.6l-3.3-5.5c-2.2-3.6-0.9-8.3,2.7-10.3l0,0c3.5-2,8.1-0.9,10.2,2.6
		l3.3,5.5C66.7,44.5,65.5,49.2,61.9,51.2z" />
	</g>
	<g id="Слой_2_1_">
		<g>
			<path class="st0" d="M125.1,41.9c0,0.9-0.2,1.8-0.6,2.7l-11.8,23.6c-1.1,2.2-2.8,3.3-5.3,3.3s-4.2-1.1-5.3-3.3L90.3,44.5
			c-0.4-0.8-0.6-1.7-0.6-2.6c0-1.7,0.6-3.1,1.7-4.2S94,36,95.7,36c2.5,0,4.2,1.1,5.3,3.2l6.4,13l6.5-12.9c1.1-2.2,2.9-3.3,5.3-3.3
			c1.7,0,3.1,0.6,4.2,1.7C124.5,38.9,125.1,40.3,125.1,41.9z" />
			<path class="st0" d="M142.8,30c0,1.6-0.6,3-1.7,4.2c-1.2,1.2-2.6,1.7-4.2,1.7c-1.6,0-3-0.6-4.2-1.7c-1.2-1.2-1.7-2.6-1.7-4.2
			s0.6-3,1.7-4.2c1.2-1.2,2.6-1.7,4.2-1.7c1.6,0,3,0.6,4.2,1.7C142.3,27,142.8,28.4,142.8,30z M142.8,65.6c0,1.6-0.6,3-1.7,4.2
			c-1.2,1.2-2.6,1.7-4.2,1.7c-1.6,0-3-0.6-4.2-1.7c-1.2-1.2-1.7-2.6-1.7-4.2V46.3c0-1.6,0.6-3,1.7-4.2c1.2-1.2,2.6-1.7,4.2-1.7
			c1.6,0,3,0.6,4.2,1.7c1.2,1.2,1.7,2.6,1.7,4.2V65.6z" />
			<path class="st0" d="M184.8,42.1c0,5.2-2,9.6-5.9,13.2l4.9,6.8c0.7,1,1.1,2.1,1.1,3.4c0,1.6-0.6,3-1.7,4.2
			c-1.2,1.2-2.6,1.8-4.2,1.8c-2.1,0-3.7-0.9-4.9-2.6l-6.4-9.1h-6.1v5.8c0,1.6-0.6,3-1.7,4.2c-1.2,1.2-2.6,1.7-4.2,1.7
			c-1.6,0-3-0.6-4.2-1.7c-1.2-1.2-1.7-2.6-1.7-4.2V30c0-1.6,0.6-3,1.7-4.2c1.2-1.2,2.6-1.8,4.2-1.8c1.6,0,3,0.6,4.2,1.8
			c1.2,1.2,1.7,2.6,1.7,4.2v17.9h5.5c2.5,0,4.1-1,5-3.1c0.6-1.9,1.1-3.8,1.7-5.7c0.9-2,2.6-3,5-3c1.6,0,3,0.6,4.2,1.8
			C184.2,39.1,184.8,40.5,184.8,42.1z" />
			<path class="st0" d="M203.3,30c0,1.6-0.6,3-1.7,4.2c-1.2,1.2-2.6,1.7-4.2,1.7c-1.6,0-3-0.6-4.2-1.7c-1.2-1.2-1.7-2.6-1.7-4.2
			s0.6-3,1.7-4.2c1.2-1.2,2.6-1.7,4.2-1.7c1.6,0,3,0.6,4.2,1.7C202.7,27,203.3,28.4,203.3,30z M203.3,65.6c0,1.6-0.6,3-1.7,4.2
			c-1.2,1.2-2.6,1.7-4.2,1.7c-1.6,0-3-0.6-4.2-1.7c-1.2-1.2-1.7-2.6-1.7-4.2V46.3c0-1.6,0.6-3,1.7-4.2c1.2-1.2,2.6-1.7,4.2-1.7
			c1.6,0,3,0.6,4.2,1.7c1.2,1.2,1.7,2.6,1.7,4.2V65.6z" />
		</g>
	</g>
</svg>